<svg width="551" height="374" viewBox="0 0 551 374" fill="none" xmlns="http://www.w3.org/2000/svg">
<path d="M164.605 47.5588C214.011 42.5917 248.049 48.8709 273.382 58.6727C292.925 66.2342 307.287 75.8865 319.581 84.1489C323.237 86.6059 326.71 88.94 330.082 91.0597C337.426 95.6761 344.304 99.2806 351.528 100.861C358.768 102.445 366.326 101.99 375.021 98.542C392.363 91.6656 414.253 72.8708 447.327 34.5814C463.84 15.4655 478.263 5.49205 490.623 2.44129C502.937 -0.597861 513.271 3.21708 521.711 11.8718C530.175 20.5506 536.727 34.0972 541.369 50.4676C546.007 66.8287 548.725 85.9651 549.549 105.778C551.197 145.416 545.264 187.674 532.06 215.752C525.457 229.795 517.068 240.22 506.97 245.048C496.908 249.858 485.046 249.158 471.351 240.728C415.856 206.567 362.14 229.688 318.911 263.995C297.288 281.154 278.249 301.14 262.867 318.232C258.592 322.983 254.578 327.533 250.874 331.733C247.935 335.065 245.192 338.175 242.667 340.989C236.929 347.386 232.266 352.313 228.79 355.097C214.866 366.252 187.074 374.761 153.914 372.694C120.777 370.629 82.3338 358.003 47.1266 326.966C11.9905 295.991 -8.01417 231.093 5.47881 171.436C12.2213 141.625 27.325 113.145 53.0663 90.8756C78.8072 68.6069 115.215 52.5244 164.605 47.5588Z" stroke="black"/>
</svg>
