<svg width="83" height="469" viewBox="0 0 83 469" fill="none" xmlns="http://www.w3.org/2000/svg">
<path d="M-417.415 234.756C-401.814 230.889 -392.348 225.554 -387.245 218.974C-382.123 212.369 -381.465 204.602 -383.259 196.058C-385.05 187.531 -389.297 178.161 -394.067 168.279C-394.821 166.716 -395.589 165.14 -396.363 163.552C-400.49 155.079 -404.785 146.262 -408.134 137.247C-416.082 115.855 -418.651 93.4991 -400.967 72.3416C-383.228 51.119 -345.044 31.0081 -271.133 14.4196C-123.394 -18.7387 -33.2407 14.0589 18.8925 67.8622C71.0547 121.696 85.2584 196.661 80.8757 248.007C76.4889 299.402 61.5278 353.867 36.8963 395.74C12.2606 437.619 -21.9872 466.809 -64.9319 467.889C-75.6488 468.159 -91.1401 465.205 -109.837 459.738C-128.522 454.275 -150.366 446.315 -173.771 436.601C-220.581 417.173 -273.607 390.743 -320.045 363.283C-366.498 335.813 -406.306 307.343 -426.723 283.844C-431.824 277.973 -435.701 272.428 -438.169 267.301C-440.638 262.173 -441.684 257.494 -441.169 253.338C-440.149 245.094 -432.919 238.598 -417.415 234.756Z" fill="#D9D9D9" fill-opacity="0.03" stroke="white"/>
</svg>
