<svg width="215" height="472" viewBox="0 0 215 472" fill="none" xmlns="http://www.w3.org/2000/svg">
<path d="M1470.39 75.1815C1579.83 76.5731 1665.81 148.567 1680.86 231.023C1688.38 272.236 1678.19 316.099 1644.32 355.137C1610.44 394.185 1552.84 428.43 1465.49 450.317C1301.61 491.383 1114.81 463.699 923.391 435.329C910.764 433.458 898.117 431.583 885.455 429.725C680.893 399.711 472.47 374.025 282.595 435.285C187.773 465.878 117.036 466.347 70.1841 447.768C23.3761 429.205 0.356458 391.612 0.938307 345.852C1.52065 300.053 25.7516 246.026 73.5934 194.728C121.428 143.437 192.839 94.9073 287.703 60.1105C477.445 -9.48817 718.244 -6.43719 939.077 14.3835C1039.07 23.8107 1134.95 36.8788 1220.12 48.4883C1229 49.6981 1237.76 50.892 1246.39 52.0644C1337.89 64.485 1415.53 74.484 1470.39 75.1815Z" fill="#D9D9D9" fill-opacity="0.02" stroke="black"/>
</svg>
